<svg width="194" height="31" viewBox="0 0 194 31" fill="none" xmlns="http://www.w3.org/2000/svg">
<path d="M9.8 30.4C7 30.4 4.8 29.6133 3.2 28.04C1.6 26.4667 0.8 24.32 0.8 21.6H4.4C4.4 23.3867 4.86667 24.7733 5.8 25.76C6.76 26.72 8.09333 27.2 9.8 27.2C11.5067 27.2 12.8267 26.72 13.76 25.76C14.72 24.7733 15.2 23.3867 15.2 21.6V4.08H8.2V0.799999H18.8V21.6C18.8 24.32 17.9867 26.4667 16.36 28.04C14.76 29.6133 12.5733 30.4 9.8 30.4ZM20.1844 30V0.799999H36.9844V4.08H23.7444V13.12H35.5844V16.36H23.7444V26.72H36.9844V30H20.1844ZM37.1688 30V0.76H54.3688V4.04H40.6888V13.76H53.3288V17.04H40.7688V30H37.1688ZM54.3531 30V0.76H71.5531V4.04H57.8731V13.76H70.5131V17.04H57.9531V30H54.3531ZM71.9375 30V26.72H77.8975V4.08H71.9375V0.799999H87.5375V4.08H81.5775V26.72H87.5375V30H71.9375ZM88.9219 30V0.799999H105.722V4.08H92.4819V13.12H104.322V16.36H92.4819V26.72H105.722V30H88.9219Z" fill="white"/>
<path d="M112.306 30V4.04H104.306V0.76H123.906V4.04H115.906V30H112.306ZM123.291 30V0.799999H140.091V4.08H126.851V13.12H138.691V16.36H126.851V26.72H140.091V30H123.291ZM148.635 30.4C146.875 30.4 145.342 30.0667 144.035 29.4C142.755 28.7333 141.755 27.7733 141.035 26.52C140.342 25.24 139.995 23.7333 139.995 22V8.8C139.995 7.04 140.342 5.53333 141.035 4.28C141.755 3.02667 142.755 2.06666 144.035 1.4C145.342 0.733333 146.875 0.4 148.635 0.4C150.395 0.4 151.915 0.746666 153.195 1.44C154.475 2.10667 155.462 3.06667 156.155 4.32C156.848 5.57333 157.195 7.06667 157.195 8.8H153.595C153.595 7.14667 153.155 5.88 152.275 5C151.422 4.09333 150.208 3.64 148.635 3.64C147.062 3.64 145.822 4.08 144.915 4.96C144.035 5.84 143.595 7.10666 143.595 8.76V22C143.595 23.6533 144.035 24.9333 144.915 25.84C145.822 26.72 147.062 27.16 148.635 27.16C150.208 27.16 151.422 26.72 152.275 25.84C153.155 24.9333 153.595 23.6533 153.595 22H157.195C157.195 23.7067 156.848 25.2 156.155 26.48C155.462 27.7333 154.475 28.7067 153.195 29.4C151.915 30.0667 150.395 30.4 148.635 30.4ZM157.379 30V0.799999H160.979V13.28H170.339V0.799999H173.939V30H170.339V16.56H160.979V30H157.379ZM172.444 30L180.844 15.2L172.884 0.799999H177.044L181.564 9.44C181.804 9.89333 182.044 10.3867 182.284 10.92C182.55 11.4267 182.764 11.8267 182.924 12.12C183.057 11.8267 183.244 11.4267 183.484 10.92C183.75 10.3867 184.004 9.89333 184.244 9.44L188.844 0.799999H192.804L184.844 14.96L193.244 30H189.124L184.124 20.72C183.884 20.2667 183.63 19.7867 183.364 19.28C183.124 18.7467 182.937 18.32 182.804 18C182.67 18.32 182.47 18.7333 182.204 19.24C181.964 19.7467 181.724 20.2267 181.484 20.68L176.444 30H172.444Z" fill="#535EDC"/>
</svg>
